<svg xmlns="http://www.w3.org/2000/svg" xmlns:xlink="http://www.w3.org/1999/xlink" width="512" height="512" viewBox="0 0 512 512"><defs><clipPath id="b"><rect width="512" height="512"/></clipPath></defs><g id="a" clip-path="url(#b)"><rect width="512" height="512" fill="none"/><path d="M0,0H281.862a0,0,0,0,1,0,0V63.529a10,10,0,0,1-10,10H10a10,10,0,0,1-10-10V0A0,0,0,0,1,0,0Z" transform="translate(45.636 224.548) rotate(-40)" /><rect width="281.862" height="73.529" transform="translate(124.409 318.425) rotate(-40)" /><path d="M0,0H127.875a20,20,0,0,1,20,20V73.529a0,0,0,0,1,0,0H0a0,0,0,0,1,0,0V0A0,0,0,0,1,0,0Z" transform="translate(203.181 412.303) rotate(-40)" /><path d="M20,0H98.039a0,0,0,0,1,0,0V73.529a0,0,0,0,1,0,0H0a0,0,0,0,1,0,0V20A20,20,0,0,1,20,0Z" transform="translate(343.998 294.144) rotate(-40)" /></g></svg>
